<svg viewBox="0 0 24 24" xmlns="http://www.w3.org/2000/svg" id="Archive-Books--Streamline-Ultimate" height="24" width="24">
  <desc>
    Archive Books Streamline Icon: https://streamlinehq.com
  </desc>
  <path d="M8 22.5a1 1 0 0 1 -1 1H1.5a1 1 0 0 1 -1 -1v-21a1 1 0 0 1 1 -1H7a1 1 0 0 1 1 1Z" fill="none" stroke="#000000" stroke-linecap="round" stroke-linejoin="round" stroke-width="1"></path>
  <path d="M5.5 14a0.5 0.5 0 0 1 -0.5 0.5H3a0.5 0.5 0 0 1 -0.5 -0.5V3a0.5 0.5 0 0 1 0.5 -0.5h2a0.5 0.5 0 0 1 0.5 0.5Z" fill="none" stroke="#000000" stroke-linecap="round" stroke-linejoin="round" stroke-width="1"></path>
  <path d="m2.5 5.5 3 0" fill="none" stroke="#000000" stroke-linecap="round" stroke-linejoin="round" stroke-width="1"></path>
  <path d="M16 22.5a1 1 0 0 1 -1 1H9a1 1 0 0 1 -1 -1v-21a1 1 0 0 1 1 -1h6a1 1 0 0 1 1 1Z" fill="none" stroke="#000000" stroke-linecap="round" stroke-linejoin="round" stroke-width="1"></path>
  <path d="M13.5 14a0.5 0.5 0 0 1 -0.5 0.5h-2a0.5 0.5 0 0 1 -0.5 -0.5V3a0.5 0.5 0 0 1 0.5 -0.5h2a0.5 0.5 0 0 1 0.5 0.5Z" fill="none" stroke="#000000" stroke-linecap="round" stroke-linejoin="round" stroke-width="1"></path>
  <path d="m10.5 5.5 3 0" fill="none" stroke="#000000" stroke-linecap="round" stroke-linejoin="round" stroke-width="1"></path>
  <path d="M23.5 22.5a1 1 0 0 1 -1 1H17a1 1 0 0 1 -1 -1v-21a1 1 0 0 1 1 -1h5.5a1 1 0 0 1 1 1Z" fill="none" stroke="#000000" stroke-linecap="round" stroke-linejoin="round" stroke-width="1"></path>
  <path d="M21.5 14a0.5 0.5 0 0 1 -0.5 0.5h-2a0.5 0.5 0 0 1 -0.5 -0.5V3a0.5 0.5 0 0 1 0.5 -0.5h2a0.5 0.5 0 0 1 0.5 0.5Z" fill="none" stroke="#000000" stroke-linecap="round" stroke-linejoin="round" stroke-width="1"></path>
  <path d="m18.5 5.5 3 0" fill="none" stroke="#000000" stroke-linecap="round" stroke-linejoin="round" stroke-width="1"></path>
  <path d="M2.5 19a1.5 1.5 0 1 0 3 0 1.5 1.5 0 1 0 -3 0" fill="none" stroke="#000000" stroke-linecap="round" stroke-linejoin="round" stroke-width="1"></path>
  <path d="M10.5 19a1.5 1.5 0 1 0 3 0 1.5 1.5 0 1 0 -3 0" fill="none" stroke="#000000" stroke-linecap="round" stroke-linejoin="round" stroke-width="1"></path>
  <path d="M18.5 19a1.5 1.5 0 1 0 3 0 1.5 1.5 0 1 0 -3 0" fill="none" stroke="#000000" stroke-linecap="round" stroke-linejoin="round" stroke-width="1"></path>
</svg>